<svg width="40" height="40" fill="none" xmlns="http://www.w3.org/2000/svg"><path d="M28.65 18.031A6.319 6.319 0 1 0 19.479 18h-5.586s-4.194.031-9.986-2.41l3.42 10.637a10.163 10.163 0 0 0 9.445 6.412h11.245a7.32 7.32 0 0 0 7.32-7.32 7.317 7.317 0 0 0-6.685-7.288Z" fill="#FD5"/><path d="M11.071 19.927s4.015 2.423 7.135 1.187c5.286-2.094 8.534.842 8.534 4.392 0 3.127-3.49 4.992-6.472 4.793-5.75-.384-8.576-4.875-9.197-10.372Z" fill="#FFEA98"/><path d="M30.333 12.792s-.937 3.648-3.59 5.208c0 0 6.002.65 9.35-3.982l-5.76-1.226Z" fill="#EAB308"/><path d="M25.68 12.522a.675.675 0 1 0 0-1.35.675.675 0 0 0 0 1.35Z" fill="#1E1E1E"/><path d="M28.016 32.64a7.32 7.32 0 0 0 7.32-7.32 7.316 7.316 0 0 0-6.685-7.289 6.202 6.202 0 0 0 1.678-5.23c-.098.199-2.199 4.3-8.298 5.23-6.25.954-6.932 9.094 3.37 10.492 10.302 1.399 2.615 4.116 2.615 4.116Z" fill="#FFC955"/><path d="M26.74 25.506c0-3.55-3.248-6.486-8.534-4.392-.173.068-.35.125-.531.172-.917 2.757 1.196 6.35 7.726 7.237a4.134 4.134 0 0 0 1.339-3.017Z" fill="#FD5"/></svg>